<?xml version="1.0" ?><!DOCTYPE svg  PUBLIC '-//W3C//DTD SVG 1.1//EN'  'http://www.w3.org/Graphics/SVG/1.1/DTD/svg11.dtd'><svg id="Lager_1" style="enable-background:new -265 388.9 64 64;" version="1.1" viewBox="-265 388.9 64 64" xml:space="preserve" xmlns="http://www.w3.org/2000/svg" xmlns:xlink="http://www.w3.org/1999/xlink"><g><path d="M-217.7,425.9v-2v-2v-0.4c0-0.9-0.7-1.6-1.6-1.6h-9.2c-0.5,0-0.9-0.4-0.9-0.9v-2.1c0-0.5,0.4-0.9,0.9-0.9h1.5   c0.5,0,0.9-0.4,0.9-0.9V407c0-0.5-0.4-0.9-0.9-0.9h-10c-0.5,0-0.9,0.4-0.9,0.9v8.1c0,0.5,0.4,0.9,0.9,0.9h1.5   c0.5,0,0.9,0.4,0.9,0.9v2.1c0,0.5-0.4,0.9-0.9,0.9h-9.2c-0.9,0-1.6,0.7-1.6,1.6v0.4v2v2h-1.4c-0.2,0-0.3,0.1-0.3,0.3v8.8   c0,0.5,0.4,0.9,0.9,0.9h6.5c0.5,0,0.9-0.4,0.9-0.9v-8.8c0-0.2-0.1-0.3-0.3-0.3h-1c-0.2,0-0.3-0.1-0.3-0.3v-1.4   c0-0.2,0.1-0.3,0.3-0.3h6.4v2h-1.4c-0.2,0-0.3,0.1-0.3,0.3v8.8c0,0.5,0.4,0.9,0.9,0.9h6.5c0.5,0,0.9-0.4,0.9-0.9v-8.8   c0-0.2-0.1-0.3-0.3-0.3h-1.1c-0.2,0-0.3-0.1-0.3-0.3v-1.4c0-0.2,0.1-0.3,0.3-0.3h6.4c0.2,0,0.3,0.1,0.3,0.3v1.4   c0,0.2-0.1,0.3-0.3,0.3h-1.1c-0.2,0-0.3,0.1-0.3,0.3v8.8c0,0.5,0.4,0.9,0.9,0.9h6.5c0.5,0,0.9-0.4,0.9-0.9v-8.8   c0-0.2-0.1-0.3-0.3-0.3H-217.7z"/></g></svg>