<?xml version="1.0" ?><!DOCTYPE svg  PUBLIC '-//W3C//DTD SVG 1.1//EN'  'http://www.w3.org/Graphics/SVG/1.1/DTD/svg11.dtd'><svg id="Lager_1" style="enable-background:new -265 388.9 64 64;" version="1.1" viewBox="-265 388.9 64 64" xml:space="preserve" xmlns="http://www.w3.org/2000/svg" xmlns:xlink="http://www.w3.org/1999/xlink"><g><ellipse cx="-232.6" cy="412.1" rx="14.6" ry="6.2"/><path d="M-232.6,431.7c-6.2,0-11.4-1.6-13.6-4c-0.4-0.4-1-0.1-1,0.4v3.6c0,3.4,6.5,6.2,14.6,6.2c8.1,0,14.6-2.8,14.6-6.2v-3.6   c0-0.5-0.6-0.8-1-0.4C-221.1,430-226.4,431.7-232.6,431.7z"/><path d="M-232.6,421.7c-6.2,0-11.4-1.6-13.6-4c-0.4-0.4-1-0.1-1,0.4v3.6c0,3.4,6.5,6.2,14.6,6.2c8.1,0,14.6-2.7,14.6-6.2v-3.6   c0-0.5-0.6-0.8-1-0.4C-221.1,420.1-226.4,421.7-232.6,421.7z"/></g></svg>